<svg width="134" height="130" viewBox="0 0 134 130" fill="none" xmlns="http://www.w3.org/2000/svg">
<path d="M133.398 110C133.398 121.046 124.444 130 113.398 130H63.5H20.3516C9.30587 130 0.351562 121.046 0.351562 110V20C0.351562 8.9543 9.30587 0 20.3516 0H113.398C124.444 0 133.398 8.95431 133.398 20V110Z" fill="#3B464C"/>
<path d="M49.712 73.728H43.328V81.984H38.672V73.728H20V70.368L37.184 48.384H42.368L25.904 69.6H38.816V62.304H43.328V69.6H49.712V73.728ZM66.3174 82.368C63.6614 82.368 61.2934 81.696 59.2134 80.352C57.1654 78.976 55.5494 76.992 54.3654 74.4C53.1814 71.808 52.5894 68.736 52.5894 65.184C52.5894 61.632 53.1814 58.56 54.3654 55.968C55.5494 53.376 57.1654 51.408 59.2134 50.064C61.2934 48.688 63.6614 48 66.3174 48C68.9414 48 71.2774 48.688 73.3254 50.064C75.4054 51.408 77.0374 53.376 78.2214 55.968C79.4054 58.56 79.9974 61.632 79.9974 65.184C79.9974 68.736 79.4054 71.808 78.2214 74.4C77.0374 76.992 75.4054 78.976 73.3254 80.352C71.2774 81.696 68.9414 82.368 66.3174 82.368ZM66.3174 78.096C69.0054 78.096 71.1494 76.992 72.7494 74.784C74.3814 72.576 75.1974 69.376 75.1974 65.184C75.1974 60.992 74.3814 57.792 72.7494 55.584C71.1494 53.376 69.0054 52.272 66.3174 52.272C63.5974 52.272 61.4214 53.376 59.7894 55.584C58.1894 57.792 57.3894 60.992 57.3894 65.184C57.3894 69.376 58.1894 72.576 59.7894 74.784C61.4214 76.992 63.5974 78.096 66.3174 78.096ZM113.837 73.728H107.453V81.984H102.797V73.728H84.125V70.368L101.309 48.384H106.493L90.029 69.6H102.941V62.304H107.453V69.6H113.837V73.728Z" fill="white"/>
</svg>
